# xmcd CD database file generated by Grip 2.95
# 
# Track frame offsets:
#       150
#       15694
#       34844
#       52359
#       97178
#       109046
#       126287
#       147478
#       174706
#       197758
# 
# Disc length: 2967 seconds
# 
# Revision: 3
# Processed by: cddbd v1.4b41PL2 Copyright (c) Steve Scherf et al.
# Submitted via: Grip 2.95
# 
DISCID=990b950a
DTITLE=Bobby Bland and B. B. King - I Like To Live The Love
DYEAR=1900
DGENRE=
TTITLE0=Three O'Clock Blues
TTITLE1=It's My Own Fault
TTITLE2=That's the Way Love Is
TTITLE3=I'm Sorry
TTITLE4=Don't Cry No More
TTITLE5=Don't Answer The Door
TTITLE6=Goin' Down Slow
TTITLE7=I Like To Live The Love
TTITLE8=Driftin' Blues
TTITLE9=Let The Good Times Roll
EXTD=
EXTT0=
EXTT1=
EXTT2=
EXTT3=
EXTT4=
EXTT5=
EXTT6=
EXTT7=
EXTT8=
EXTT9=
PLAYORDER=
